:FULLY-SPECIFIED
:FORCE-ALL-JOINTS-BE-3DOF
:DEGREES
1121
root 0.911939 14.7039 -28.4216 361.686 6.28064 363.278
lfemur -25.6531 5.5957 -22.6889
ltibia 71.1955 0 0
lfoot -26.8598 25.7303 0
ltoes -19.6551 0 0
rfemur -63.4936 -8.93223 22.095
rtibia 68.276 0 0
rfoot 14.8421 1.32122 0
rtoes -9.49972 0 0
lowerback 15.7949 0.93729 -10.7158
upperback -0.666699 -0.56641 2.14003
thorax -9.54961 0.334983 8.62339
lowerneck -4.7654 -3.48154 -5.45515
upperneck 4.7111 -4.55724 4.98934
head 2.62672 -2.22467 2.41134
lclavicle -3.92927e-15 -9.06013e-15 0
lhumerus 71.6901 -39.007 48.5985
lradius 96.7172 0 0
lwrist 27.5808 0 0
lhand -29.8025 32.5671 0
lfingers 7.12502 0 0
lthumb -6.17062 71.6653 0
rclavicle -4.95414e-14 -9.80389e-15 0
rhumerus -28.8776 24.8272 -94.8202
rradius 88.318 0 0
rwrist -26.9895 0 0
rhand -20.5858 -45.9284 0
rfingers 7.12502 0 0
rthumb 24.0745 -63.6151 0
1122
root 0.867803 14.7358 -28.22 361.342 8.06128 363.219
lfemur -23.9793 4.96464 -22.3569
ltibia 71.1345 0 0
lfoot -27.1913 25.818 0
ltoes -19.5533 0 0
rfemur -63.0578 -8.93582 21.6262
rtibia 68.178 0 0
rfoot 16.9076 1.93207 0
rtoes -9.4265 0 0
lowerback 15.6599 0.883437 -10.5301
upperback -0.722873 -0.583895 2.20295
thorax -9.53098 0.320452 8.58784
lowerneck -4.13509 -4.00006 -6.06388
upperneck 4.81926 -5.26774 5.34708
head 2.62609 -2.58816 2.62184
lclavicle -7.62277e-15 -1.12984e-14 0
lhumerus 70.9773 -38.8977 48.8979
lradius 96.8442 0 0
lwrist 27.5564 0 0
lhand -28.6638 31.674 0
lfingers 7.12502 0 0
lthumb -5.83667 71.1694 0
rclavicle -4.66005e-14 -9.49702e-15 0
rhumerus -24.8625 23.4248 -92.4793
rradius 88.0505 0 0
rwrist -24.6206 0 0
rhand -21.6207 -45.4957 0
rfingers 7.12502 0 0
rthumb 25.2759 -62.55 0
1123
root 0.821389 14.7709 -28.0143 360.972 9.73807 363.102
lfemur -22.4772 4.39836 -22.059
ltibia 70.958 0 0
lfoot -27.5411 25.9105 0
ltoes -19.4389 0 0
rfemur -62.3699 -8.94148 20.8863
rtibia 68.1441 0 0
rfoot 18.897 2.5204 0
rtoes -9.30955 0 0
lowerback 15.4735 0.898743 -10.2681
upperback -0.638799 -0.484665 2.25764
thorax -9.35188 0.341446 8.46663
lowerneck -4.05909 -4.58737 -6.70672
upperneck 5.08022 -6.05494 5.79769
head 2.8005 -2.98137 2.86085
lclavicle -1.137e-14 -1.35692e-14 0
lhumerus 68.9204 -38.5822 49.7617
lradius 96.8878 0 0
lwrist 27.5479 0 0
lhand -27.4789 30.7446 0
lfingers 7.12502 0 0
lthumb -5.30236 70.376 0
rclavicle -4.36454e-14 -9.18869e-15 0
rhumerus -20.4449 21.8818 -89.9036
rradius 87.8497 0 0
rwrist -22.3168 0 0
rhand -22.7128 -45.0391 0
rfingers 7.12502 0 0
rthumb 26.4159 -61.5394 0
1124
root 0.778825 14.8072 -27.8072 360.587 11.4383 362.999
lfemur -21.1782 3.90862 -21.8014
ltibia 70.6755 0 0
lfoot -27.9031 26.0063 0
ltoes -19.3136 0 0
rfemur -61.4615 -8.94896 19.9091
rtibia 68.1144 0 0
rfoot 20.7847 3.07867 0
rtoes -9.15304 0 0
lowerback 15.3063 0.827546 -10.0508
upperback -0.834001 -0.522896 2.32696
thorax -9.46593 0.329754 8.42673
lowerneck -2.86706 -5.00805 -7.41688
upperneck 5.161 -6.68236 6.21983
head 2.70514 -3.31534 3.13271
lclavicle -1.51352e-14 -1.58509e-14 0
lhumerus 65.6415 -38.0792 51.1387
lradius 96.9359 0 0
lwrist 27.6481 0 0
lhand -26.2662 29.7935 0
lfingers 7.12502 0 0
lthumb -4.5859 69.3121 0
rclavicle -4.07045e-14 -8.88182e-15 0
rhumerus -15.6823 20.2184 -87.1269
rradius 87.7234 0 0
rwrist -20.1215 0 0
rhand -23.8429 -44.5665 0
rfingers 7.12502 0 0
rthumb 27.4793 -60.5967 0
1125
root 0.740275 14.8383 -27.5971 360.235 12.8723 362.827
lfemur -20.1135 3.50722 -21.5902
ltibia 70.2967 0 0
lfoot -28.2712 26.1037 0
ltoes -19.1793 0 0
rfemur -60.3641 -8.958 18.7286
rtibia 68.0279 0 0
rfoot 22.5455 3.5994 0
rtoes -8.96114 0 0
lowerback 14.9638 0.787649 -9.70454
upperback -0.740253 -0.463829 2.43033
thorax -9.17682 0.322119 8.31588
lowerneck -2.94345 -5.49745 -8.11216
upperneck 5.6333 -7.33438 6.51038
head 2.98421 -3.64714 3.3312
lclavicle -1.88824e-14 -1.81218e-14 0
lhumerus 61.2629 -37.4076 52.9776
lradius 97.0738 0 0
lwrist 27.9398 0 0
lhand -25.0444 28.8351 0
lfingers 7.12502 0 0
lthumb -3.70549 68.0048 0
rclavicle -3.78057e-14 -8.57936e-15 0
rhumerus -10.6323 18.4545 -84.1825
rradius 87.6796 0 0
rwrist -18.0781 0 0
rhand -24.9922 -44.0861 0
rfingers 7.12502 0 0
rthumb 28.4506 -59.7356 0
1126
root 0.699485 14.8777 -27.383 359.791 14.4241 362.651
lfemur -19.3143 3.20592 -21.4317
ltibia 69.8313 0 0
lfoot -28.6392 26.2011 0
ltoes -19.0378 0 0
rfemur -59.1092 -8.96833 17.3787
rtibia 67.8887 0 0
rfoot 24.1539 4.07506 0
rtoes -8.73801 0 0
lowerback 14.9311 0.676543 -9.3647
upperback -0.931583 -0.547799 2.50011
thorax -9.35293 0.285176 8.21878
lowerneck -2.26421 -5.83707 -8.7558
upperneck 6.26277 -7.87357 7.06332
head 2.8555 -3.9094 3.25947
lclavicle -2.25759e-14 -2.036e-14 0
lhumerus 55.9068 -36.5861 55.2271
lradius 97.2913 0 0
lwrist 28.4091 0 0
lhand -23.8317 27.884 0
lfingers 7.12502 0 0
lthumb -2.67937 66.4811 0
rclavicle -3.49772e-14 -8.28422e-15 0
rhumerus -5.35224 16.6103 -81.1041
rradius 87.6923 0 0
rwrist -16.23 0 0
rhand -26.1414 -43.6056 0
rfingers 7.12502 0 0
rthumb 29.3146 -58.9696 0
1127
root 0.662975 14.9215 -27.166 359.353 15.9334 362.518
lfemur -18.8119 3.01651 -21.3321
ltibia 69.2888 0 0
lfoot -29.0012 26.2969 0
ltoes -18.8908 0 0
rfemur -57.7282 -8.9797 15.8932
rtibia 67.7008 0 0
rfoot 25.5846 4.49816 0
rtoes -8.4878 0 0
lowerback 14.3769 0.554062 -9.13013
upperback -0.790809 -0.600987 2.62115
thorax -8.86654 0.217007 8.20885
lowerneck -1.97354 -6.19301 -9.27244
upperneck 6.59273 -8.37089 7.13463
head 2.97151 -4.172 3.34157
lclavicle -2.61799e-14 -2.2544e-14 0
lhumerus 49.6953 -35.6334 57.8358
lradius 97.5785 0 0
lwrist 29.0425 0 0
lhand -22.6468 26.9546 0
lfingers 7.12502 0 0
lthumb -1.52574 64.768 0
rclavicle -3.22472e-14 -7.99936e-15 0
rhumerus 0.100283 14.7059 -77.925
rradius 87.7291 0 0
rwrist -14.6206 0 0
rhand -27.2715 -43.133 0
rfingers 7.12502 0 0
rthumb 30.0559 -58.3125 0
1128
root 0.626439 14.963 -26.9459 358.849 17.3399 362.359
lfemur -18.6375 2.95075 -21.2975
ltibia 68.679 0 0
lfoot -29.351 26.3894 0
ltoes -18.7403 0 0
rfemur -56.2527 -8.99185 14.306
rtibia 67.4684 0 0
rfoot 26.812 4.86116 0
rtoes -8.2147 0 0
lowerback 14.1347 0.41264 -8.76359
upperback -0.862979 -0.70397 2.65352
thorax -8.78697 0.148581 8.0473
lowerneck -1.49002 -6.44314 -9.68581
upperneck 7.05306 -8.75035 7.13563
head 3.08029 -4.38084 3.39649
lclavicle -2.96584e-14 -2.4652e-14 0
lhumerus 42.7506 -34.5682 60.7523
lradius 97.9255 0 0
lwrist 29.8262 0 0
lhand -21.5081 26.0615 0
lfingers 7.12502 0 0
lthumb -0.262824 62.8927 0
rclavicle -2.96437e-14 -7.72771e-15 0
rhumerus 5.66779 12.7613 -74.679
rradius 87.7878 0 0
rwrist -13.2932 0 0
rhand -28.3636 -42.6764 0
rfingers 7.12502 0 0
rthumb 30.6591 -57.7777 0
1129
root 0.590579 14.9998 -26.7255 358.399 18.6863 362.241
lfemur -18.4987 2.95926 -21.2535
ltibia 68.0113 0 0
lfoot -29.6825 26.4771 0
ltoes -18.5879 0 0
rfemur -54.7142 -9.00451 12.651
rtibia 67.1954 0 0
rfoot 27.8109 5.15657 0
rtoes -7.92285 0 0
lowerback 13.8589 0.269982 -8.49753
upperback -0.866996 -0.818854 2.7281
thorax -8.61044 0.0724864 7.99023
lowerneck -1.33488 -6.63236 -10.068
upperneck 7.49704 -9.01414 7.04473
head 3.22444 -4.52889 3.41334
lclavicle -3.29757e-14 -2.66623e-14 0
lhumerus 35.195 -33.4093 63.9255
lradius 98.3223 0 0
lwrist 30.7466 0 0
lhand -20.4342 25.2192 0
lfingers 7.12502 0 0
lthumb 1.09117 60.8821 0
rclavicle -2.71949e-14 -7.47219e-15 0
rhumerus 11.2928 10.7966 -71.3994
rradius 87.8664 0 0
rwrist -12.2914 0 0
rhand -29.3985 -42.2437 0
rfingers 7.12502 0 0
rthumb 31.109 -57.3789 0
1130
root 0.554029 15.0223 -26.5022 357.918 19.8689 362.119
lfemur -18.0998 2.98372 -21.127
ltibia 67.2955 0 0
lfoot -29.9896 26.5584 0
ltoes -18.4355 0 0
rfemur -53.1442 -9.01744 10.9622
rtibia 66.8859 0 0
rfoot 28.5559 5.37688 0
rtoes -7.61644 0 0
lowerback 13.6234 0.163811 -8.19961
upperback -0.836715 -0.889769 2.73665
thorax -8.42989 0.0132123 7.83157
lowerneck -1.28171 -6.80916 -10.2197
upperneck 7.84691 -9.2514 6.88557
head 3.34181 -4.65815 3.37212
lclavicle -3.60959e-14 -2.85531e-14 0
lhumerus 27.1506 -32.1754 67.304
lradius 98.759 0 0
lwrist 31.7901 0 0
lhand -19.4434 24.4421 0
lfingers 7.12502 0 0
lthumb 2.51803 58.7633 0
rclavicle -2.49288e-14 -7.23574e-15 0
rhumerus 16.9178 8.83189 -68.1198
rradius 87.9628 0 0
rwrist -11.6585 0 0
rhand -30.3572 -41.8429 0
rfingers 7.12502 0 0
rthumb 31.3902 -57.1296 0
1131
root 0.519428 15.0327 -26.2748 357.448 21.0973 362.158
lfemur -17.4666 3.02254 -20.9262
ltibia 66.5412 0 0
lfoot -30.2661 26.6316 0
ltoes -18.285 0 0
rfemur -51.5742 -9.03037 9.27337
rtibia 66.544 0 0
rfoot 29.0215 5.51457 0
rtoes -7.29961 0 0
lowerback 13.525 0.0301529 -8.00243
upperback -0.782808 -1.03274 2.6598
thorax -8.28917 -0.0768694 7.65478
lowerneck -1.40145 -6.94747 -10.1869
upperneck 8.02576 -9.41799 6.68994
head 3.41948 -4.7447 3.2909
lclavicle -3.89832e-14 -3.03029e-14 0
lhumerus 18.7396 -30.8853 70.8364
lradius 99.2255 0 0
lwrist 32.9429 0 0
lhand -18.5543 23.7448 0
lfingers 7.12502 0 0
lthumb 3.99953 56.5634 0
rclavicle -2.28736e-14 -7.0213e-15 0
rhumerus 22.4853 6.88729 -64.8738
rradius 88.0749 0 0
rwrist -11.4379 0 0
rhand -31.2207 -41.4818 0
rfingers 7.12502 0 0
rthumb 31.4873 -57.0435 0
1132
root 0.483989 15.0315 -26.0442 357.083 22.0662 362.271
lfemur -16.6253 3.07412 -20.6594
ltibia 65.758 0 0
lfoot -30.5061 26.6951 0
ltoes -18.138 0 0
rfemur -50.0357 -9.04303 7.61842
rtibia 66.1737 0 0
rfoot 29.1823 5.56214 0
rtoes -6.97653 0 0
lowerback 13.4008 -0.0923212 -7.96289
upperback -0.759302 -1.18902 2.5433
thorax -8.16497 -0.165238 7.52797
lowerneck -1.51117 -7.07961 -10.0082
upperneck 8.21486 -9.57965 6.44699
head 3.48842 -4.82667 3.17311
lclavicle -4.16018e-14 -3.18897e-14 0
lhumerus 10.0842 -29.5577 74.4714
lradius 99.712 0 0
lwrist 34.1914 0 0
lhand -17.7855 23.1417 0
lfingers 7.12502 0 0
lthumb 5.51746 54.3094 0
rclavicle -2.10575e-14 -6.8318e-15 0
rhumerus 27.9378 4.98285 -61.6947
rradius 88.2006 0 0
rwrist -11.2773 0 0
rhand -31.9699 -41.1686 0
rfingers 7.12502 0 0
rthumb 31.3157 -57.081 0
1133
root 0.447491 15.0137 -25.8141 356.741 23.0228 362.394
lfemur -15.6019 3.13686 -20.3349
ltibia 64.9555 0 0
lfoot -30.7034 26.7473 0
ltoes -17.9965 0 0
rfemur -48.5602 -9.05518 6.03125
rtibia 65.7791 0 0
rfoot 28.9966 5.57743 0
rtoes -6.65137 0 0
lowerback 13.4501 -0.153743 -7.94846
upperback -0.711842 -1.28342 2.39272
thorax -8.12633 -0.219251 7.37183
lowerneck -1.88351 -7.28646 -9.61948
upperneck 8.27523 -9.82085 6.1708
head 3.55526 -4.93767 2.99987
lclavicle -4.39158e-14 -3.3292e-14 0
lhumerus 1.30665 -28.2114 78.1578
lradius 100.208 0 0
lwrist 35.5219 0 0
lhand -17.1553 22.6474 0
lfingers 7.12502 0 0
lthumb 7.05361 52.0283 0
rclavicle -1.95085e-14 -6.67018e-15 0
rhumerus 33.2179 3.13865 -58.6163
rradius 88.3377 0 0
rwrist -10.8157 0 0
rhand -32.5858 -40.9111 0
rfingers 7.12502 0 0
rthumb 30.8175 -57.19 0
1134
root 0.409135 14.9828 -25.5829 356.56 23.9396 362.675
lfemur -14.4223 3.20918 -19.9608
ltibia 64.1434 0 0
lfoot -30.8518 26.7865 0
ltoes -17.8622 0 0
rfemur -47.1792 -9.06655 4.54575
rtibia 65.3642 0 0
rfoot 28.4638 5.62128 0
rtoes -6.32829 0 0
lowerback 13.5006 -0.163004 -8.23582
upperback -0.679878 -1.35883 2.23005
thorax -8.10494 -0.249634 7.37404
lowerneck -2.26779 -7.54512 -9.24447
upperneck 8.24737 -10.1412 6.02049
head 3.60875 -5.08337 2.8625
lclavicle -4.58895e-14 -3.44881e-14 0
lhumerus -7.47092 -26.865 81.8441
lradius 100.705 0 0
lwrist 36.9208 0 0
lhand -16.6822 22.2764 0
lfingers 7.12502 0 0
lthumb 8.58976 49.7472 0
rclavicle -1.82548e-14 -6.53936e-15 0
rhumerus 38.2679 1.37478 -55.6719
rradius 88.4843 0 0
rwrist -10.0831 0 0
rhand -33.0493 -40.7173 0
rfingers 7.12502 0 0
rthumb 30.018 -57.3649 0
